<svg width="16" height="15" viewBox="0 0 16 15" fill="none" xmlns="http://www.w3.org/2000/svg">
<path fill-rule="evenodd" clip-rule="evenodd" d="M3.8864 1.87581C4.42548 1.67366 5.49239 1.79719 5.77316 2.40365C6.05393 3.01011 6.22239 3.79626 6.23362 3.60534C6.21214 3.02505 6.26116 2.44429 6.37962 1.87581C6.50445 1.51173 6.79046 1.22572 7.15454 1.10089C7.48845 0.995288 7.84297 0.972167 8.18777 1.03351C8.53639 1.10527 8.84516 1.30577 9.05253 1.59504C9.31527 2.24994 9.46343 2.94515 9.49053 3.65026C9.51847 3.04858 9.62031 2.45262 9.79376 1.87581C9.98143 1.61138 10.2555 1.42073 10.5687 1.33673C10.94 1.26885 11.3205 1.26885 11.6918 1.33673C11.9965 1.43788 12.2631 1.62992 12.4554 1.88704C12.694 2.48244 12.838 3.11147 12.8822 3.75134C12.8822 3.90857 12.9608 3.31334 13.2079 2.92027C13.4064 2.33102 14.045 2.01425 14.6342 2.21273C15.2234 2.41121 15.5402 3.04979 15.3417 3.63903C15.3417 4.36903 15.3417 4.33534 15.3417 4.82949C15.3417 5.32364 15.3417 5.76164 15.3417 6.17718C15.3013 6.83442 15.2112 7.48767 15.0722 8.13132C14.8773 8.70107 14.6052 9.24143 14.2636 9.73732C13.7184 10.3438 13.2679 11.0291 12.9271 11.7701C12.844 12.1384 12.8063 12.5156 12.8148 12.8931C12.8137 13.242 12.859 13.5895 12.9496 13.9264C12.4904 13.9754 12.0274 13.9754 11.5682 13.9264C11.1302 13.859 10.5911 12.983 10.4451 12.7135C10.3729 12.5687 10.2251 12.4773 10.0633 12.4773C9.90155 12.4773 9.75369 12.5687 9.68145 12.7135C9.43438 13.1402 8.88407 13.9151 8.55838 13.9601C7.80592 14.0499 6.24485 13.9601 5.03193 13.9601C5.03193 13.9601 5.24532 12.837 4.77363 12.4327C4.30194 12.0284 3.84148 11.5567 3.49333 11.2422L2.56118 10.209C1.90383 9.59882 1.42281 8.82297 1.16857 7.96286C0.932721 6.90717 0.955182 6.40179 1.16857 5.97502C1.38621 5.62261 1.72605 5.36273 2.12318 5.24503C2.4531 5.18518 2.79273 5.20833 3.11148 5.31241C3.3319 5.40469 3.5224 5.55631 3.66179 5.75041C3.92009 6.09856 4.00994 6.26702 3.89763 5.88518C3.78532 5.50333 3.53825 5.22256 3.41471 4.76211C3.17421 4.21831 3.02981 3.63693 2.98794 3.0438C3.01091 2.50387 3.37042 2.0365 3.8864 1.87581Z" stroke="black" stroke-width="0.842304" stroke-linejoin="round"/>
</svg>
