<svg width="18" height="17" viewBox="0 0 18 17" fill="none" xmlns="http://www.w3.org/2000/svg">
<g filter="url(#filter0_d_1_661)">
<path d="M4.8864 1.87581C5.42548 1.67366 6.49239 1.79719 6.77316 2.40365C7.05393 3.01011 7.22239 3.79626 7.23362 3.60534C7.21214 3.02505 7.26116 2.44429 7.37962 1.87581C7.50445 1.51173 7.79046 1.22572 8.15454 1.10089C8.48845 0.995288 8.84297 0.972167 9.18777 1.03351C9.53639 1.10527 9.84516 1.30577 10.0525 1.59504C10.3153 2.24994 10.4634 2.94515 10.4905 3.65026C10.5185 3.04858 10.6203 2.45262 10.7938 1.87581C10.9814 1.61138 11.2555 1.42073 11.5687 1.33673C11.94 1.26885 12.3205 1.26885 12.6918 1.33673C12.9965 1.43788 13.2631 1.62992 13.4554 1.88704C13.694 2.48244 13.838 3.11147 13.8822 3.75134C13.8822 3.90857 13.9608 3.31334 14.2079 2.92027C14.4064 2.33102 15.045 2.01425 15.6342 2.21273C16.2234 2.41121 16.5402 3.04979 16.3417 3.63903C16.3417 4.36903 16.3417 4.33534 16.3417 4.82949C16.3417 5.32364 16.3417 5.76164 16.3417 6.17718C16.3013 6.83442 16.2112 7.48767 16.0722 8.13132C15.8773 8.70107 15.6052 9.24143 15.2636 9.73732C14.7184 10.3438 14.2679 11.0291 13.9271 11.7701C13.844 12.1384 13.8063 12.5156 13.8148 12.8931C13.8137 13.242 13.859 13.5895 13.9496 13.9264C13.4904 13.9754 13.0274 13.9754 12.5682 13.9264C12.1302 13.859 11.5911 12.983 11.4451 12.7135C11.3729 12.5687 11.2251 12.4773 11.0633 12.4773C10.9015 12.4773 10.7537 12.5687 10.6815 12.7135C10.4344 13.1402 9.88407 13.9151 9.55838 13.9601C8.80592 14.0499 7.24485 13.9601 6.03194 13.9601C6.03194 13.9601 6.24532 12.837 5.77363 12.4327C5.30194 12.0284 4.84148 11.5567 4.49333 11.2422L3.56118 10.209C2.90383 9.59882 2.42281 8.82297 2.16857 7.96286C1.93272 6.90717 1.95518 6.40179 2.16857 5.97502C2.38621 5.62261 2.72605 5.36273 3.12318 5.24503C3.4531 5.18518 3.79273 5.20833 4.11148 5.31241C4.3319 5.40469 4.5224 5.55631 4.66179 5.75041C4.92009 6.09856 5.00994 6.26702 4.89763 5.88518C4.78532 5.50333 4.53825 5.22256 4.41471 4.76211C4.17421 4.21831 4.02981 3.63693 3.98794 3.0438C4.03397 2.51165 4.40553 2.06399 4.92009 1.92073" fill="white"/>
<path fill-rule="evenodd" clip-rule="evenodd" d="M4.8864 1.87581C5.42548 1.67366 6.49239 1.79719 6.77316 2.40365C7.05393 3.01011 7.22239 3.79626 7.23362 3.60534C7.21214 3.02505 7.26116 2.44429 7.37962 1.87581C7.50445 1.51173 7.79046 1.22572 8.15454 1.10089C8.48845 0.995288 8.84297 0.972167 9.18777 1.03351C9.53639 1.10527 9.84516 1.30577 10.0525 1.59504C10.3153 2.24994 10.4634 2.94515 10.4905 3.65026C10.5185 3.04858 10.6203 2.45262 10.7938 1.87581C10.9814 1.61138 11.2555 1.42073 11.5687 1.33673C11.94 1.26885 12.3205 1.26885 12.6918 1.33673C12.9965 1.43788 13.2631 1.62992 13.4554 1.88704C13.694 2.48244 13.838 3.11147 13.8822 3.75134C13.8822 3.90857 13.9608 3.31334 14.2079 2.92027C14.4064 2.33102 15.045 2.01425 15.6342 2.21273C16.2234 2.41121 16.5402 3.04979 16.3417 3.63903C16.3417 4.36903 16.3417 4.33534 16.3417 4.82949C16.3417 5.32364 16.3417 5.76164 16.3417 6.17718C16.3013 6.83442 16.2112 7.48767 16.0722 8.13132C15.8773 8.70107 15.6052 9.24143 15.2636 9.73732C14.7184 10.3438 14.2679 11.0291 13.9271 11.7701C13.844 12.1384 13.8063 12.5156 13.8148 12.8931C13.8137 13.242 13.859 13.5895 13.9496 13.9264C13.4904 13.9754 13.0274 13.9754 12.5682 13.9264C12.1302 13.859 11.5911 12.983 11.4451 12.7135C11.3729 12.5687 11.2251 12.4773 11.0633 12.4773C10.9015 12.4773 10.7537 12.5687 10.6815 12.7135C10.4344 13.1402 9.88407 13.9151 9.55838 13.9601C8.80592 14.0499 7.24485 13.9601 6.03193 13.9601C6.03193 13.9601 6.24532 12.837 5.77363 12.4327C5.30194 12.0284 4.84148 11.5567 4.49333 11.2422L3.56118 10.209C2.90383 9.59882 2.42281 8.82297 2.16857 7.96286C1.93272 6.90717 1.95518 6.40179 2.16857 5.97502C2.38621 5.62261 2.72605 5.36273 3.12318 5.24503C3.4531 5.18518 3.79273 5.20833 4.11148 5.31241C4.3319 5.40469 4.5224 5.55631 4.66179 5.75041C4.92009 6.09856 5.00994 6.26702 4.89763 5.88518C4.78532 5.50333 4.53825 5.22256 4.41471 4.76211C4.17421 4.21831 4.02981 3.63693 3.98794 3.0438C4.01091 2.50387 4.37042 2.0365 4.8864 1.87581Z" stroke="black" stroke-width="0.842304" stroke-linejoin="round"/>
<path d="M13.5904 10.496V6.61937C13.5904 6.38733 13.4018 6.19922 13.1692 6.19922C12.9366 6.19922 12.748 6.38733 12.748 6.61937V10.496C12.748 10.728 12.9366 10.9161 13.1692 10.9161C13.4018 10.9161 13.5904 10.728 13.5904 10.496Z" fill="black"/>
<path d="M11.3667 10.4946L11.3443 6.61596C11.3429 6.38447 11.1533 6.19789 10.9207 6.19923C10.6881 6.20056 10.5006 6.3893 10.502 6.62079L10.5244 10.4994C10.5258 10.7309 10.7154 10.9174 10.948 10.9161C11.1806 10.9148 11.3681 10.726 11.3667 10.4946Z" fill="black"/>
<path d="M8.25587 6.62588L8.27833 10.4944C8.27969 10.7287 8.46934 10.9175 8.70194 10.9161C8.93453 10.9147 9.12198 10.7237 9.12062 10.4895L9.09816 6.62092C9.0968 6.38666 8.90714 6.19786 8.67455 6.19923C8.44196 6.2006 8.25451 6.39162 8.25587 6.62588Z" fill="black"/>
</g>
<defs>
<filter id="filter0_d_1_661" x="0.6804" y="0.578857" width="17.0403" height="15.8639" filterUnits="userSpaceOnUse" color-interpolation-filters="sRGB">
<feFlood flood-opacity="0" result="BackgroundImageFix"/>
<feColorMatrix in="SourceAlpha" type="matrix" values="0 0 0 0 0 0 0 0 0 0 0 0 0 0 0 0 0 0 127 0" result="hardAlpha"/>
<feOffset dy="1.12307"/>
<feGaussianBlur stdDeviation="0.449229"/>
<feColorMatrix type="matrix" values="0 0 0 0 0 0 0 0 0 0 0 0 0 0 0 0 0 0 0.5 0"/>
<feBlend mode="normal" in2="BackgroundImageFix" result="effect1_dropShadow_1_661"/>
<feBlend mode="normal" in="SourceGraphic" in2="effect1_dropShadow_1_661" result="shape"/>
</filter>
</defs>
</svg>
