<svg width="138" height="58" viewBox="0 0 138 58" fill="none" xmlns="http://www.w3.org/2000/svg">
<path d="M18.3216 23.6892C18.3216 23.5119 18.4102 23.4233 18.5874 23.4233H21.8306C22.0078 23.4233 22.0964 23.5119 22.0964 23.6892V36.8479C22.1319 37.291 22.3179 37.6454 22.6547 37.9113C23.0091 38.1594 23.4965 38.2834 24.1167 38.2834H24.7016C25.056 38.2834 25.3219 38.4075 25.4991 38.6556C25.6763 38.9037 25.7649 39.3113 25.7649 39.8784C25.7649 40.9595 25.4105 41.5 24.7016 41.5C24.0459 41.5 23.4699 41.4203 22.9737 41.2608C22.4774 41.1013 22.061 40.7379 21.7242 40.1708C21.4407 40.7025 21.0331 41.0569 20.5014 41.2342C19.9697 41.4114 19.2254 41.5 18.2684 41.5H5.13625C4.01975 41.5 3.22225 41.2342 2.74375 40.7025C2.26525 40.1531 2.026 39.3024 2.026 38.1505V32.2756C2.026 32.0984 2.11461 32.0098 2.29183 32.0098H5.535C5.71222 32.0098 5.80083 32.0984 5.80083 32.2756V36.8745C5.80083 37.2112 5.83628 37.4771 5.90717 37.672C5.99578 37.8492 6.11983 37.991 6.27933 38.0973C6.45656 38.1859 6.66036 38.2391 6.89075 38.2568C7.13886 38.2746 7.42242 38.2834 7.74142 38.2834H17.019C17.5861 38.2834 17.9406 38.1328 18.0823 37.8315C18.2418 37.5125 18.3216 36.9543 18.3216 36.1568V23.6892ZM12.4467 29.4578H12.8986C13.5366 29.4578 13.9885 29.6261 14.2543 29.9628C14.5202 30.2996 14.6531 30.8046 14.6531 31.4781V32.0363C14.6531 32.7275 14.5202 33.206 14.2543 33.4718C13.9885 33.7199 13.5897 33.844 13.0581 33.844H9.73517C9.55794 33.844 9.46933 33.7554 9.46933 33.5782V32.6478C9.46933 32.4705 9.55794 32.3819 9.73517 32.3819H12.3669C12.615 32.3819 12.7657 32.3465 12.8188 32.2756C12.8897 32.187 12.9252 32.0363 12.9252 31.8237C12.9252 31.4161 12.872 31.1679 12.7657 31.0793C12.6593 30.973 12.4201 30.9198 12.0479 30.9198H10.5592C10.3111 30.9198 10.1871 30.7958 10.1871 30.5477V29.7502C10.1871 29.6261 10.2225 29.5286 10.2934 29.4578C10.3643 29.3869 10.4175 29.3248 10.4529 29.2717L12.4201 26.9323C12.5087 26.8437 12.5884 26.8083 12.6593 26.826C12.7479 26.826 12.81 26.8437 12.8454 26.8792C12.934 26.9501 13.0404 27.0298 13.1644 27.1184C13.2885 27.207 13.3948 27.3045 13.4834 27.4108C13.5897 27.4994 13.6606 27.5969 13.6961 27.7033C13.7492 27.7919 13.7404 27.8893 13.6695 27.9957L12.4467 29.4578ZM27.9932 46.923C27.816 46.923 27.7273 46.8344 27.7273 46.6572V44.052C27.7273 43.8748 27.816 43.7862 27.9932 43.7862H31.2895C31.4667 43.7862 31.5553 43.8748 31.5553 44.052V46.6572C31.5553 46.8344 31.4667 46.923 31.2895 46.923H27.9932ZM25.9197 41.5C25.5652 41.5 25.2994 41.438 25.1222 41.3139C24.945 41.1899 24.8563 40.9418 24.8563 40.5696C24.8563 40.3569 24.8829 40.1177 24.9361 39.8518C24.9715 39.586 25.0336 39.3379 25.1222 39.1075C25.1931 38.8771 25.2994 38.6822 25.4412 38.5227C25.5652 38.3632 25.7247 38.2834 25.9197 38.2834H26.8501C27.2931 38.2834 27.6121 38.1859 27.8071 37.991C28.0198 37.7783 28.1261 37.4062 28.1261 36.8745V30.5743C28.1261 30.397 28.2147 30.3084 28.3919 30.3084H31.6351C31.8123 30.3084 31.9009 30.397 31.9009 30.5743V38.1505C31.9009 39.3024 31.6617 40.1531 31.1832 40.7025C30.7047 41.2342 29.9072 41.5 28.7907 41.5H25.9197ZM36.3034 23.6892C36.3034 23.5119 36.392 23.4233 36.5692 23.4233H39.7858C39.9631 23.4233 40.0517 23.5119 40.0517 23.6892V36.8745C40.0517 37.4062 40.1491 37.7783 40.3441 37.991C40.5567 38.1859 40.8846 38.2834 41.3277 38.2834H42.0454C42.3999 38.2834 42.6657 38.4163 42.8429 38.6822C43.0201 38.9303 43.1087 39.3556 43.1087 39.9582C43.1087 40.5962 43.0201 41.0126 42.8429 41.2076C42.6834 41.4025 42.4176 41.5 42.0454 41.5H39.4137C38.2972 41.5 37.4997 41.2342 37.0212 40.7025C36.5427 40.1531 36.3034 39.3024 36.3034 38.1505V23.6892ZM44.7256 27.6235C44.5484 27.6235 44.4598 27.5349 44.4598 27.3577V24.7525C44.4598 24.5753 44.5484 24.4867 44.7256 24.4867H47.3839C47.5611 24.4867 47.6498 24.5753 47.6498 24.7525V27.3577C47.6498 27.5349 47.5611 27.6235 47.3839 27.6235H44.7256ZM48.8194 27.6235C48.6422 27.6235 48.5536 27.5349 48.5536 27.3577V24.7525C48.5536 24.5753 48.6422 24.4867 48.8194 24.4867H51.5043C51.6816 24.4867 51.7702 24.5753 51.7702 24.7525V27.3577C51.7702 27.5349 51.6816 27.6235 51.5043 27.6235H48.8194ZM46.2674 30.5743C46.2674 30.397 46.356 30.3084 46.5333 30.3084H49.7498C49.9271 30.3084 50.0157 30.397 50.0157 30.5743V36.8479C50.0511 37.291 50.2372 37.6454 50.5739 37.9113C50.9284 38.1594 51.4157 38.2834 52.036 38.2834H52.6474C53.0019 38.2834 53.2677 38.4075 53.4449 38.6556C53.6221 38.9037 53.7108 39.3113 53.7108 39.8784C53.7108 40.9595 53.3563 41.5 52.6474 41.5C51.974 41.5 51.3891 41.4203 50.8929 41.2608C50.3967 41.1013 49.9802 40.7379 49.6435 40.1708C49.3599 40.7379 48.9346 41.1013 48.3675 41.2608C47.8181 41.4203 47.0561 41.5 46.0813 41.5H43.3433C42.9888 41.5 42.723 41.3937 42.5458 41.181C42.3685 40.9506 42.2799 40.5341 42.2799 39.9316C42.2799 39.329 42.3685 38.9037 42.5458 38.6556C42.7053 38.4075 42.9711 38.2834 43.3433 38.2834H44.9914C45.5585 38.2834 45.913 38.1239 46.0548 37.8049C46.1965 37.4682 46.2674 36.9011 46.2674 36.1036V30.5743ZM60.0374 30.0958C60.959 30.1312 61.7653 30.2287 62.4565 30.3882C63.1654 30.5477 63.7591 30.8312 64.2376 31.2388C64.7161 31.6287 65.0705 32.1604 65.3009 32.8338C65.549 33.5073 65.6731 34.3579 65.6731 35.3858V36.9543C65.6731 37.8226 65.5845 38.5493 65.4072 39.1341C65.2477 39.7189 64.9996 40.1886 64.6629 40.543C64.3439 40.8797 63.9274 41.1278 63.4135 41.2873C62.9173 41.4291 62.3324 41.5 61.659 41.5H53.8435C53.4891 41.5 53.2232 41.3759 53.046 41.1278C52.8688 40.8797 52.7802 40.4367 52.7802 39.7987C52.7802 39.1961 52.8688 38.7974 53.046 38.6024C53.2055 38.3898 53.4713 38.2834 53.8435 38.2834H59.7982C60.2235 38.2834 60.5691 38.2568 60.8349 38.2037C61.1007 38.1505 61.3046 38.0619 61.4463 37.9378C61.5881 37.7961 61.6767 37.61 61.7122 37.3796C61.7653 37.1492 61.7919 36.8568 61.7919 36.5023V35.2795C61.7919 34.5706 61.597 34.0567 61.2071 33.7377C60.8349 33.4187 60.2324 33.2592 59.3994 33.2592H55.4119C55.2347 33.2592 55.1461 33.1706 55.1461 32.9933V30.8135C55.1461 30.6894 55.217 30.5565 55.3587 30.4148C55.5005 30.2553 55.6246 30.1135 55.7309 29.9894L61.3666 23.317C61.4729 23.1929 61.5881 23.1664 61.7122 23.2373L63.9186 25.0981C64.0604 25.2044 64.0958 25.3285 64.0249 25.4703L60.0374 30.0958Z" fill="#FF3CA6"/>
<circle cx="108.833" cy="29" r="29" fill="#FF3CA6"/>
<g clip-path="url(#clip0_1_434)">
<path d="M94.2888 13.7373C94.2877 13.7373 94.2865 13.7373 94.2853 13.7373C93.8918 13.7373 93.5217 13.8907 93.2422 14.1695C92.9596 14.4514 92.804 14.8267 92.804 15.2263V37.5528C92.804 38.3716 93.4726 39.0393 94.2947 39.0414C97.7605 39.0496 103.567 39.772 107.573 43.9638V20.5984C107.573 20.3209 107.502 20.0602 107.368 19.8444C104.08 14.5499 97.7624 13.7454 94.2888 13.7373Z" fill="white"/>
<path d="M124.653 37.553V15.2263C124.653 14.8267 124.497 14.4514 124.215 14.1695C123.935 13.8907 123.565 13.7373 123.172 13.7373C123.17 13.7373 123.169 13.7373 123.168 13.7373C119.694 13.7456 113.377 14.55 110.089 19.8446C109.955 20.0603 109.884 20.321 109.884 20.5986V43.9638C113.89 39.772 119.696 39.0496 123.162 39.0414C123.984 39.0393 124.653 38.3716 124.653 37.553Z" fill="white"/>
<path d="M128.044 18.8867H126.964V37.5533C126.964 39.6437 125.261 41.3483 123.168 41.3535C120.228 41.3605 115.381 41.9353 111.948 45.1843C117.885 43.7306 124.144 44.6756 127.711 45.4884C128.156 45.5899 128.616 45.4851 128.973 45.2007C129.329 44.917 129.533 44.4929 129.533 44.0377V20.3753C129.533 19.5545 128.865 18.8867 128.044 18.8867Z" fill="white"/>
<path d="M90.4922 37.5533V18.8867H89.4126C88.5919 18.8867 87.924 19.5545 87.924 20.3753V44.0373C87.924 44.4926 88.1279 44.9166 88.4835 45.2003C88.84 45.4845 89.2998 45.5897 89.7459 45.488C93.3128 44.675 99.5716 43.7302 105.508 45.1839C102.076 41.935 97.2286 41.3603 94.289 41.3533C92.1955 41.3483 90.4922 39.6437 90.4922 37.5533Z" fill="white"/>
</g>
<defs>
<clipPath id="clip0_1_434">
<rect width="41.6087" height="41.6087" fill="white" transform="translate(87.924 8.82611)"/>
</clipPath>
</defs>
</svg>
